:SAMPLES-PER-SECOND 30
:FULLY-SPECIFIED
:DEGREES
147
root  35.05860276 36.49833859 -14.76329143 8.904783249 -10.85592651 5.296924114
lowerback  -6.884390354 -1.897500038 -0.9659280181
upperback  -3.675659895 -2.005630016 -4.414840221
thorax  -0.06238240004 -0.8469539881 -4.153409958
lowerneck  2.159049988 -19.41990089 -12.45769978
upperneck  2.203569889 -26.708601 14.06960011
head  3.842651606 -13.22614193 4.543668747
lclavicle  0 -4.497500157e-015 -2.743230041e-014
lhumerus  -48.99580002 26.4864006 62.53379822
lradius  5.228657756e-007 -6.507048965e-006 30.5814991
lwrist  4.824992743e-007 -3.790274832e-007 -27.57490158
lhand  -4.421075406e-031 -36.99359894 -10.73900032
lfingers  90 7.125020027 -90
lthumb  94.87364258 -25.57032378 101.1749705
rclavicle  0 -4.497500157e-015 -2.743230041e-014
rhumerus  1.885751367 -41.82940292 -0.4567358792
rradius  -5.16745672e-007 2.214343908e-008 50.40359879
rwrist  -0.0001064338358 0.02974390797 -165.572998
rhand  -1.773272061e-031 5.344679832 -6.189730167
rfingers  -90 -7.125020027 -90
rthumb  -84.14803469 -9.744171156 -58.80205063
rfemur  -14.20513725 16.2768631 9.926065445
rtibia  -1.628802896 -3.360448122 21.66251183
rfoot  0.7694252133 -25.09342575 -31.14045906
rtoes  4.002570987 19.61148178 -101.7759506
lfemur  -8.20531559 -17.37322426 -23.56108093
ltibia  3.383957863 -3.888001204 14.48748684
lfoot  1.608134866 -18.35126877 41.04600143
ltoes  -8.621687307 -18.11529044 -115.9958678
148
root  35.06215914 36.49828753 -14.76298955 8.89477253 -10.85536957 5.339074135
lowerback  -6.897840023 -1.884619951 -0.9210924506
upperback  -3.671849966 -1.990090013 -4.429599762
thorax  -0.05226489902 -0.8397780061 -4.19367981
lowerneck  2.131230116 -19.4239006 -12.42650032
upperneck  2.222599983 -26.71249962 14.06639957
head  3.848537922 -13.22585106 4.535936356
lclavicle  0 -4.497500157e-015 -2.743230041e-014
lhumerus  -48.9530983 26.42259979 62.52939987
lradius  5.228657756e-007 -6.507048965e-006 30.58029938
lwrist  4.824992743e-007 -3.790274832e-007 -27.60759926
lhand  -0 -36.94309998 -10.68309975
lfingers  90 7.125020027 -90
lthumb  94.83800898 -25.51723726 101.1159128
rclavicle  0 -4.497500157e-015 -2.743230041e-014
rhumerus  2.314170361 -41.99159622 -0.4815643728
rradius  -5.16745672e-007 2.214343908e-008 49.4070015
rwrist  -0.0001064338358 0.02974390797 -165.2480011
rhand  -1.77228767e-031 4.99296999 -6.562530041
rfingers  -90 -7.125020027 -90
rthumb  -84.43170458 -9.404539094 -59.17832201
rfemur  -14.21026039 16.29327202 9.888415337
rtibia  -1.653451562 -3.386644363 21.68613815
rfoot  0.7658550739 -25.10926437 -31.12744331
rtoes  3.999514057 19.61208186 -101.766843
lfemur  -8.153679848 -17.50125694 -23.65657806
ltibia  3.43296051 -3.981688976 14.43889427
lfoot  1.586041927 -18.14603996 41.03847122
ltoes  -8.641864051 -18.10592539 -116.0607756
149
root  35.06678183 36.49880116 -14.76275977 8.893331528 -10.86457729 5.372227669
lowerback  -6.887629986 -1.868710041 -0.8945252299
upperback  -3.665240049 -1.971029997 -4.440430164
thorax  -0.05124409869 -0.8309059739 -4.218540192
lowerneck  2.074840069 -19.44470024 -12.38879967
upperneck  2.271840334 -26.73729897 14.01729965
head  3.863650084 -13.22636509 4.507740021
lclavicle  0 -4.497500157e-015 -2.743230041e-014
lhumerus  -48.90039825 26.40970039 62.50680161
lradius  5.228657756e-007 -6.507048965e-006 30.53199768
lwrist  4.824992743e-007 -3.790274832e-007 -27.63089752
lhand  -4.418381259e-031 -36.94720078 -10.64820004
lfingers  90 7.125020027 -90
lthumb  94.83244991 -25.48285924 101.1170268
rclavicle  0 -4.497500157e-015 -2.743230041e-014
rhumerus  2.533179998 -41.80250168 -0.2169385254
rradius  -5.16745672e-007 2.214343908e-008 48.39870071
rwrist  -0.0001064338358 0.02974390797 -165.2879944
rhand  -1.773186655e-031 5.315100193 -6.676799774
rfingers  -90 -7.125020027 -90
rthumb  -84.41111477 -9.325634523 -58.87330211
rfemur  -14.22055626 16.29503632 9.849344254
rtibia  -1.673246622 -3.425093889 21.69084549
rfoot  0.7604284286 -25.14542961 -31.12000275
rtoes  3.99450198 19.6130647 -101.7519109
lfemur  -8.230531693 -17.46521759 -23.67234612
ltibia  3.4009974 -3.997184277 14.53183937
lfoot  1.606679201 -18.19809914 41.0036087
ltoes  -8.633038116 -18.11002533 -116.0323789
150
root  35.07316469 36.49841068 -14.76261409 8.895234108 -10.88421631 5.418506145
lowerback  -6.903900623 -1.852410078 -0.853425324
upperback  -3.654469967 -1.951329947 -4.450769901
thorax  -0.03170669824 -0.8218399882 -4.251989841
lowerneck  2.082989931 -19.44739914 -12.32699966
upperneck  2.228509903 -26.73450089 13.99820042
head  3.838190079 -13.22789955 4.500609875
lclavicle  0 -4.497500157e-015 -2.743230041e-014
lhumerus  -48.87369919 26.42580032 62.45249939
lradius  5.228657756e-007 -6.507048965e-006 30.50950241
lwrist  4.824992743e-007 -3.790274832e-007 -27.7378006
lhand  -4.419437315e-031 -36.9654007 -10.70269966
lfingers  90 7.125020027 -90
lthumb  94.85264533 -25.53563328 101.1415517
rclavicle  0 -4.497500157e-015 -2.743230041e-014
rhumerus  2.655855179 -41.28659439 0.3110566437
rradius  -5.16745672e-007 2.214343908e-008 47.41870117
rwrist  -0.0001064338358 0.02974390797 -165.6080017
rhand  -1.773674342e-031 5.48183012 -6.743000031
rfingers  -90 -7.125020027 -90
rthumb  -84.40421718 -9.279186068 -58.71612387
rfemur  -14.23086357 16.27179909 9.788738251
rtibia  -1.688961983 -3.438982487 21.69793892
rfoot  0.7569727898 -25.11811638 -31.11152267
rtoes  3.993684289 19.61322492 -101.7494749
lfemur  -8.200900078 -17.57341194 -23.76323891
ltibia  3.44470644 -4.073171139 14.48782921
lfoot  1.609702706 -18.0405407 41.05340576
ltoes  -8.638437674 -18.10751767 -116.0497508
151
root  35.0795866 36.49556618 -14.76255702 8.900868416 -10.89996338 5.471658707
lowerback  -6.906539917 -1.827080011 -0.8026425838
upperback  -3.672660112 -1.920699954 -4.451409817
thorax  -0.0488778986 -0.8072639704 -4.279240131
lowerneck  2.208889961 -19.44339943 -12.37320042
upperneck  2.173840046 -26.7376976 14.03419971
head  3.813570023 -13.23263741 4.529930115
lclavicle  0 -4.497500157e-015 -2.743230041e-014
lhumerus  -48.88710022 26.33709908 62.44829941
lradius  5.228657756e-007 -6.507048965e-006 30.51129913
lwrist  4.824992743e-007 -3.790274832e-007 -27.66939926
lhand  -0 -37.3423996 -10.82909966
lfingers  90 7.125020027 -90
lthumb  95.05768548 -25.64579509 101.5569128
rclavicle  0 -4.497500157e-015 -2.743230041e-014
rhumerus  2.774733305 -41.11449432 0.628247261
rradius  -5.16745672e-007 2.214343908e-008 46.71580124
rwrist  -0.0001064338358 0.02974390797 -165.7359924
rhand  -1.773899217e-031 5.55700016 -6.874619961
rfingers  -90 -7.125020027 -90
rthumb  -84.45481231 -9.1713312 -58.65379565
rfemur  -14.26778984 16.27967644 9.726545334
rtibia  -1.713335276 -3.461092234 21.7448082
rfoot  0.7344445586 -25.12164307 -31.11316299
rtoes  3.990627032 19.61382367 -101.7403671
lfemur  -8.252795219 -17.47512817 -23.8092308
ltibia  3.447368622 -4.059855461 14.51209641
lfoot  1.629597783 -18.12130547 41.00105286
ltoes  -8.618808588 -18.11662437 -115.9866097
152
root  35.08671738 36.49360777 -14.76260208 8.925508499 -10.92857075 5.494737148
lowerback  -6.901280403 -1.817170024 -0.7980639935
upperback  -3.675189972 -1.907430053 -4.460380077
thorax  -0.05399220064 -0.8005939722 -4.290150166
lowerneck  2.23093009 -19.4416008 -12.39150047
upperneck  2.21710968 -26.74200249 14.03820038
head  3.826780081 -13.23810005 4.532209873
lclavicle  0 -4.497500157e-015 -2.743230041e-014
lhumerus  -48.87609863 26.26140022 62.43420029
lradius  5.228657756e-007 -6.507048965e-006 30.49942589
lwrist  4.824992743e-007 -3.790274832e-007 -27.58429909
lhand  -4.444038413e-031 -37.38479996 -10.8295002
lfingers  90 7.125020027 -90
lthumb  95.07773087 -25.64454171 101.6022255
rclavicle  0 -4.497500157e-015 -2.743230041e-014
rhumerus  3.11316514 -41.24749756 0.7270208001
rradius  -5.16745672e-007 2.214343908e-008 45.82080078
rwrist  -0.0001064338358 0.02974390797 -166.1000061
rhand  -1.773641251e-031 5.470680237 -7.113200188
rfingers  -90 -7.125020027 -90
rthumb  -84.60154391 -8.962046803 -58.75782
rfemur  -14.32880974 16.28502846 9.678992271
rtibia  -1.724757433 -3.479256153 21.77929115
rfoot  0.7177464962 -25.1297226 -31.10486984
rtoes  3.988671861 19.61420632 -101.7345426
lfemur  -8.293410301 -17.44182587 -23.82981491
ltibia  3.450857639 -4.046473503 14.52141666
lfoot  1.670176983 -18.18025208 41.06111908
ltoes  -8.629093344 -18.11185611 -116.019689
153
root  35.09138513 36.49074524 -14.76275827 8.921037674 -10.93360329 5.536874294
lowerback  -6.894859314 -1.806759834 -0.7334700823
upperback  -3.625289917 -1.89910996 -4.4855299
thorax  -0.008691130206 -0.7984870076 -4.35296011
lowerneck  2.022140026 -19.4734993 -12.26900005
upperneck  2.286999941 -26.76919937 13.99380016
head  3.861312628 -13.24605846 4.480668068
lclavicle  0 -4.497500157e-015 -2.743230041e-014
lhumerus  -48.73099899 26.2928009 62.43080139
lradius  5.228657756e-007 -6.507048965e-006 30.4858017
lwrist  4.824992743e-007 -3.790274832e-007 -27.56970024
lhand  -0 -37.32419968 -10.84549999
lfingers  90 7.125020027 -90
lthumb  95.05268538 -25.66243413 101.5389446
rclavicle  0 -4.497500157e-015 -2.743230041e-014
rhumerus  3.398726702 -41.35609436 0.8329561949
rradius  -5.16745672e-007 2.214343908e-008 44.93840027
rwrist  -0.0001064338358 0.02974390797 -166.1329956
rhand  -1.774356042e-031 5.706610203 -6.996210098
rfingers  -90 -7.125020027 -90
rthumb  -84.48185154 -9.077020123 -58.51794421
rfemur  -14.37594318 16.23340797 9.633746147
rtibia  -1.744422197 -3.505067825 21.86088371
rfoot  0.7100518346 -25.17730522 -31.00003052
rtoes  4.001042536 19.61178188 -101.7713968
lfemur  -8.239499092 -17.51538849 -23.9108963
ltibia  3.503885269 -4.095530987 14.43271065
lfoot  1.659485221 -18.03969002 41.09682465
ltoes  -8.637241411 -18.10807341 -116.0459019
154
root  35.09544012 36.48975402 -14.76303761 8.913909912 -10.93449402 5.575006485
lowerback  -6.910930634 -1.787150025 -0.6805552244
upperback  -3.601279974 -1.875710011 -4.504849911
thorax  0.02404290065 -0.7878109813 -4.402460098
lowerneck  1.996979952 -19.48769951 -12.2038002
upperneck  2.2401402 -26.78109741 14.01150036
head  3.847039938 -13.24349976 4.476819992
lclavicle  0 -4.497500157e-015 -2.743230041e-014
lhumerus  -48.64479828 26.29159927 62.41439819
lradius  5.228657756e-007 -6.507048965e-006 30.47890282
lwrist  4.824992743e-007 -3.790274832e-007 -27.57449913
lhand  -0 -37.36460114 -10.84029961
lfingers  90 7.125020027 -90
lthumb  95.07065872 -25.65595662 101.5817448
rclavicle  0 -4.497500157e-015 -2.743230041e-014
rhumerus  3.596614361 -41.31940079 1.002785206
rradius  -5.16745672e-007 2.214343908e-008 44.08190155
rwrist  -0.0001064338358 0.02974390797 -166.0740051
rhand  -0 5.781700134 -7.002190113
rfingers  -90 -7.125020027 -90
rthumb  -84.46638851 -9.07669101 -58.44512999
rfemur  -14.41552925 16.25144577 9.597102165
rtibia  -1.763448119 -3.485500097 21.94288445
rfoot  0.6558038592 -25.13668442 -31.07020187
rtoes  4.000438131 19.61190051 -101.7695961
lfemur  -8.174357414 -17.51248169 -23.98348236
ltibia  3.563444138 -4.084815502 14.32252312
lfoot  1.658776522 -18.02131844 41.14829636
ltoes  -8.603924867 -18.12351224 -115.9387535
